<svg width="14" height="18" viewBox="0 0 14 18" fill="none" xmlns="http://www.w3.org/2000/svg">
<path d="M13.4 17.4H11.975V15.881C11.975 15.2102 11.7076 14.567 11.2317 14.0929C10.7558 13.6187 10.1104 13.3524 9.4375 13.3524H4.5625C3.88963 13.3524 3.24425 13.6187 2.76835 14.0929C2.29243 14.567 2.025 15.2102 2.025 15.881V17.4H0.6V15.881C0.6 14.8341 1.01739 13.83 1.76046 13.0897C2.50354 12.3493 3.51146 11.9333 4.5625 11.9333H9.4375C10.4885 11.9333 11.4965 12.3493 12.2395 13.0897C12.9826 13.83 13.4 14.8341 13.4 15.881V17.4ZM7 10.1143C6.37289 10.1143 5.75192 9.99122 5.17257 9.75212C4.59321 9.51302 4.06682 9.16258 3.62344 8.72082C3.18005 8.27906 2.82836 7.75464 2.58843 7.1775C2.34849 6.60037 2.225 5.98181 2.225 5.35714C2.225 4.73248 2.34849 4.11392 2.58843 3.53678C2.82836 2.95965 3.18005 2.43522 3.62344 1.99346C4.06682 1.55171 4.59321 1.20126 5.17257 0.962165C5.75192 0.723067 6.37289 0.6 7 0.6C8.26653 0.6 9.48111 1.10129 10.3766 1.99346C11.272 2.88563 11.775 4.09559 11.775 5.35714C11.775 6.6187 11.272 7.82866 10.3766 8.72082C9.48111 9.613 8.26653 10.1143 7 10.1143ZM7 8.69524C7.88836 8.69524 8.7404 8.34364 9.36868 7.71766C9.99697 7.09168 10.35 6.24258 10.35 5.35714C10.35 4.47171 9.99697 3.62261 9.36868 2.99662C8.7404 2.37065 7.88836 2.01905 7 2.01905C6.11164 2.01905 5.2596 2.37065 4.63132 2.99662C4.00303 3.62261 3.65 4.47171 3.65 5.35714C3.65 6.24258 4.00303 7.09168 4.63132 7.71766C5.2596 8.34364 6.11164 8.69524 7 8.69524Z" fill="black" stroke="white" stroke-width="0.2"/>
</svg>
