<svg width="18" height="16" viewBox="0 0 18 16" fill="none" xmlns="http://www.w3.org/2000/svg">
<path d="M8.93328 1.39729L9.00075 1.45888L9.06817 1.39724C11.0253 -0.392116 14.0493 -0.332743 15.9349 1.59079C17.8201 3.51568 17.8857 6.58138 16.1335 8.58159L8.999 15.8572L1.8662 8.58159C0.11397 6.58135 0.18054 3.51051 2.06476 1.59087C3.95213 -0.330253 6.9703 -0.394653 8.93328 1.39729ZM14.8741 2.67384L14.8741 2.67381C13.5614 1.33533 11.4431 1.28075 10.0688 2.53758C10.0688 2.53759 10.0688 2.5376 10.0688 2.53761L9.00149 3.51293L7.93339 2.53841C7.93338 2.53841 7.93338 2.5384 7.93337 2.53839C6.55483 1.27989 4.44081 1.33537 3.1248 2.6755C1.82188 4.00231 1.75633 6.12535 2.95697 7.52878L2.9568 7.52893L2.96155 7.53378L8.92844 13.6196L8.99984 13.6924L9.07125 13.6196L15.0381 7.53465L15.0383 7.53481L15.0427 7.52965C16.2443 6.12529 16.1786 4.00491 14.8741 2.67384Z" fill="black" stroke="white" stroke-width="0.2"/>
</svg>
