<svg width="18" height="18" viewBox="0 0 18 18" fill="none" xmlns="http://www.w3.org/2000/svg">
<path d="M13.8457 11.8922L17.0527 15.0984L15.9932 16.1579L12.7869 12.9509C11.594 13.9073 10.1101 14.4274 8.5811 14.4253C4.86121 14.4253 1.84216 11.4062 1.84216 7.68632C1.84216 3.96643 4.86121 0.947388 8.5811 0.947388C12.301 0.947388 15.32 3.96643 15.32 7.68632C15.3222 9.21531 14.8021 10.6992 13.8457 11.8922ZM12.3437 11.3366C13.2939 10.3593 13.8246 9.04941 13.8225 7.68632C13.8225 4.79008 11.4766 2.44493 8.5811 2.44493C5.68485 2.44493 3.3397 4.79008 3.3397 7.68632C3.3397 10.5818 5.68485 12.9277 8.5811 12.9277C9.94418 12.9299 11.2541 12.3992 12.2314 11.4489L12.3437 11.3366Z" fill="black" stroke="white" stroke-width="0.2"/>
</svg>
