<svg width="16" height="18" viewBox="0 0 16 18" fill="none" xmlns="http://www.w3.org/2000/svg">
<path d="M3.83333 6.26667H3.93333V6.16667V4.54762C3.93333 3.5016 4.36106 2.49781 5.1234 1.75725C5.88584 1.01659 6.92053 0.6 8 0.6C9.07947 0.6 10.1142 1.01659 10.8766 1.75725C11.6389 2.49781 12.0667 3.5016 12.0667 4.54762V6.16667V6.26667H12.1667H14.6667C14.8621 6.26667 15.0489 6.3421 15.1862 6.4755C15.3235 6.6088 15.4 6.78896 15.4 6.97619V16.6905C15.4 16.8777 15.3235 17.0579 15.1862 17.1912C15.0489 17.3246 14.8621 17.4 14.6667 17.4H1.33333C1.13792 17.4 0.951075 17.3246 0.813756 17.1912C0.676536 17.0579 0.6 16.8777 0.6 16.6905V6.97619C0.6 6.78896 0.676536 6.6088 0.813756 6.4755C0.951075 6.3421 1.13792 6.26667 1.33333 6.26667H3.83333ZM3.93333 7.78571V7.68571H3.83333H2.16667H2.06667V7.78571V15.881V15.981H2.16667H13.8333H13.9333V15.881V7.78571V7.68571H13.8333H12.1667H12.0667V7.78571V9.30476H10.6V7.78571V7.68571H10.5H5.5H5.4V7.78571V9.30476H3.93333V7.78571ZM5.4 6.16667V6.26667H5.5H10.5H10.6V6.16667V4.54762C10.6 3.87605 10.3253 3.23259 9.83745 2.75863C9.34964 2.28477 8.68864 2.01905 8 2.01905C7.31136 2.01905 6.65036 2.28477 6.16255 2.75863C5.67465 3.23259 5.4 3.87605 5.4 4.54762V6.16667Z" fill="black" stroke="white" stroke-width="0.2"/>
</svg>
